<?xml version="1.0" encoding="UTF-8"?>
<svg id="Layer_2" data-name="Layer 2" xmlns="http://www.w3.org/2000/svg" viewBox="0 0 180 180">
  <defs>
    <style>
      .cls-1 {
        fill: #007782;
      }

      .cls-1, .cls-2 {
        stroke-width: 0px;
      }

      .cls-2 {
        fill: #f2f2f2;
      }
    </style>
  </defs>
  <g id="Layer_1-2" data-name="Layer 1">
    <g>
      <rect class="cls-1" width="180" height="180"/>
      <g>
        <path class="cls-2" d="M80.52,63.96c.32,3.76.6,8.06.84,12.9.24,4.84.38,9.82.42,14.94.04,5.12-.06,10.14-.3,15.06s-.64,9.34-1.2,13.26c-.56,3.92-1.3,7.1-2.22,9.54-.92,2.44-2.06,3.74-3.42,3.9-.88.08-1.7-.68-2.46-2.28-.76-1.6-1.46-3.68-2.1-6.24-.64-2.56-1.24-5.44-1.8-8.64-.56-3.2-1.06-6.36-1.5-9.48-.44-3.12-.82-6.02-1.14-8.7-.32-2.68-.56-4.82-.72-6.42-.24-1.76-.4-3.84-.48-6.24-.08-2.4-.16-4.88-.24-7.44-.08-2.56-.16-5.04-.24-7.44-.08-2.4-.2-4.48-.36-6.24,0-.48-.4-.78-1.2-.9-.8-.12-1.8-.26-3-.42-1.2-.16-2.58-.42-4.14-.78-1.56-.36-3.14-1.02-4.74-1.98-1.92-1.2-2.64-2.2-2.16-3,.48-.8,1.66-1.46,3.54-1.98,1.88-.52,4.2-.92,6.96-1.2,2.76-.28,5.48-.48,8.16-.6,2.68-.12,5.04-.16,7.08-.12,2.04.04,3.26.06,3.66.06.64.08,1.7.12,3.18.12s3.16.04,5.04.12c1.88.08,3.84.18,5.88.3,2.04.12,3.9.3,5.58.54,1.68.24,3.06.54,4.14.9,1.08.36,1.62.78,1.62,1.26,0,.8-.7,1.62-2.1,2.46-1.4.84-3.2,1.62-5.4,2.34-2.2.72-4.64,1.3-7.32,1.74-2.68.44-5.3.66-7.86.66Z"/>
        <path class="cls-2" d="M96.12,89.28c-.88-.48-1.68-.76-2.4-.84-.72-.08-1.38-.12-1.98-.12s-1.12-.06-1.56-.18c-.44-.12-.82-.5-1.14-1.14-.24-.56.14-1.32,1.14-2.28,1-.96,2.34-1.76,4.02-2.4,1.68-.64,3.56-.9,5.64-.78,2.08.12,4.08.94,6,2.46,1.68,1.44,3.06,2.82,4.14,4.14,1.08,1.32,1.94,2.5,2.58,3.54.72,1.2,1.24,2.36,1.56,3.48,2.24-2.24,4.56-4.08,6.96-5.52,2.08-1.28,4.4-2.32,6.96-3.12,2.56-.8,5.12-.8,7.68,0,.64.24.94.74.9,1.5-.04.76-.36,1.58-.96,2.46-.6.88-1.42,1.72-2.46,2.52-1.04.8-2.28,1.36-3.72,1.68-2.8.64-5.02,1.84-6.66,3.6-1.64,1.76-2.9,3.82-3.78,6.18-.88,2.36-1.44,4.88-1.68,7.56-.24,2.68-.36,5.26-.36,7.74.08,5.2-.64,9.06-2.16,11.58-1.52,2.52-3.56,3.86-6.12,4.02-2.96.16-5.18-1.2-6.66-4.08-1.48-2.88-2.18-7.76-2.1-14.64.08-4.32.1-8.06.06-11.22-.04-3.16-.18-5.84-.42-8.04-.24-2.2-.62-3.96-1.14-5.28-.52-1.32-1.3-2.26-2.34-2.82Z"/>
      </g>
    </g>
  </g>
</svg>